<?xml version="1.0" encoding="UTF-8"?>
<svg width="94px" height="40px" viewBox="0 0 94 40" version="1.1" xmlns="http://www.w3.org/2000/svg" xmlns:xlink="http://www.w3.org/1999/xlink">
    <!-- Generator: Sketch 61.1 (89650) - https://sketch.com -->
    <title>è®¾ä¸ºä¸­å¿ƒ</title>
    <desc>Created with Sketch.</desc>
    <defs>
        <path d="M12,0 L66,0 C72.627417,-1.21743675e-15 78,5.372583 78,12 C78,18.627417 72.627417,24 66,24 L12,24 C5.372583,24 8.11624501e-16,18.627417 0,12 C-8.11624501e-16,5.372583 5.372583,1.21743675e-15 12,0 Z" id="path-1"></path>
        <filter x="-17.9%" y="-41.7%" width="135.9%" height="216.7%" filterUnits="objectBoundingBox" id="filter-2">
            <feOffset dx="0" dy="4" in="SourceAlpha" result="shadowOffsetOuter1"></feOffset>
            <feGaussianBlur stdDeviation="4" in="shadowOffsetOuter1" result="shadowBlurOuter1"></feGaussianBlur>
            <feColorMatrix values="0 0 0 0 0.376470588   0 0 0 0 0.380392157   0 0 0 0 0.439215686  0 0 0 0.16 0" type="matrix" in="shadowBlurOuter1" result="shadowMatrixOuter1"></feColorMatrix>
            <feOffset dx="0" dy="0" in="SourceAlpha" result="shadowOffsetOuter2"></feOffset>
            <feGaussianBlur stdDeviation="1" in="shadowOffsetOuter2" result="shadowBlurOuter2"></feGaussianBlur>
            <feColorMatrix values="0 0 0 0 0.156862745   0 0 0 0 0.160784314   0 0 0 0 0.239215686  0 0 0 0.04 0" type="matrix" in="shadowBlurOuter2" result="shadowMatrixOuter2"></feColorMatrix>
            <feMerge>
                <feMergeNode in="shadowMatrixOuter1"></feMergeNode>
                <feMergeNode in="shadowMatrixOuter2"></feMergeNode>
            </feMerge>
        </filter>
    </defs>
    <g id="å‡¯æ™ºæ…§è½¦_1" stroke="none" stroke-width="1" fill="none" fill-rule="evenodd">
        <g id="3-2.1æ™ºèƒ½è®¾å¤‡å›¾è°±ç®¡ç†-æœç´¢ç»“æžœ1" transform="translate(-1212.000000, -324.000000)">
            <g id="ç¼–ç»„" transform="translate(1218.000000, 326.000000)">
                <g id="ç¼–ç»„-13">
                    <g id="è®¾ä¸ºä¸­å¿ƒ" transform="translate(0.188781, 0.000000)">
                        <rect id="çŸ©å½¢" fill-rule="nonzero" x="0" y="0" width="82" height="28" rx="14"></rect>
                        <g id="ç¼–ç»„-15å¤‡ä»½" transform="translate(1.811219, 1.925429)">
                            <g id="ç¼–ç»„-9">
                                <g id="Chips5">
                                    <g id="Button-/-Base-/-Button-Style-/-âš™ï¸-Rounded-Fill" fill-rule="nonzero">
                                        <g id="â‘-Elevation">
                                            <use fill="black" fill-opacity="1" filter="url(#filter-2)" xlink:href="#path-1"></use>
                                            <use fill="#FFFFFF" xlink:href="#path-1"></use>
                                        </g>
                                        <path d="M12,0 L66,0 C72.627417,-1.21743675e-15 78,5.372583 78,12 C78,18.627417 72.627417,24 66,24 L12,24 C5.372583,24 8.11624501e-16,18.627417 0,12 C-8.11624501e-16,5.372583 5.372583,1.21743675e-15 12,0 Z" id="ðŸŽ¨-Color" fill="#39D98A"></path>
                                    </g>
                                    <g id="Avatar-/-Image" opacity="0.7" transform="translate(2.000000, 2.000000)" fill="#F7F7F7">
                                        <circle id="Avatar-Image" cx="10" cy="10" r="10"></circle>
                                    </g>
                                </g>
                                <path d="M16.8810446,14.2520162 C16.2907597,13.9103454 15.5713065,14.0020131 15.0865783,14.4297961 L14.3504583,14.0034021 L14.3504583,11.896432 C14.3504583,11.6783738 14.2337902,11.4755935 14.044899,11.3672589 L12.1559872,10.2797457 L12.1559872,9.34778989 C12.7698835,9.13945403 13.2115555,8.55889141 13.2115555,7.87416086 C13.2115555,7.01442819 12.5157138,6.3185864 11.6559811,6.3185864 C10.7962484,6.3185864 10.1004066,7.01442819 10.1004066,7.87416086 C10.1004066,8.55889141 10.5420786,9.13945403 11.155975,9.34778989 L11.155975,10.2797457 L9.26706315,11.3672589 C9.07817196,11.4755935 8.96150388,11.6783738 8.96150388,11.896432 L8.96150388,14.0020131 L8.22538381,14.4284072 C7.7406557,14.0006242 7.0198136,13.9089565 6.43091755,14.2506273 C5.68785296,14.6811881 5.43507211,15.6311996 5.86146618,16.3742642 C6.28924916,17.1173288 7.235094,17.3728875 7.97538078,16.9437156 C8.56566573,16.6020448 8.8462247,15.9298144 8.71983427,15.2936955 L9.39623138,14.9006352 L11.3490329,16.0256489 C11.4434785,16.0798162 11.5490353,16.1075943 11.6545922,16.1075943 C11.760149,16.1075943 11.8657059,16.0798162 11.9601514,16.0256489 L13.9115641,14.9020241 L14.5879612,15.2950844 C14.4615707,15.9298144 14.7435186,16.6034337 15.3324147,16.9451045 C16.0727014,17.3742764 17.0199352,17.1201066 17.4463293,16.3756531 C17.8741122,15.6311996 17.6213314,14.6811881 16.8810446,14.2520162 Z M7.53370874,16.1742618 C7.21703822,16.3575973 6.81008883,16.2492627 6.62814217,15.9298144 C6.44480661,15.6117549 6.55314126,15.2034166 6.87120068,15.0200811 C7.1878712,14.8367455 7.59482059,14.9450802 7.77676725,15.2645285 C7.96010281,15.5825879 7.85176816,15.9909262 7.53370874,16.1742618 Z M10.9879174,7.87416086 C10.9879174,7.50610083 11.2865321,7.20748609 11.6545922,7.20748609 C12.0226522,7.20748609 12.3212669,7.50610083 12.3212669,7.87416086 C12.3212669,8.24222089 12.0226522,8.54083564 11.6545922,8.54083564 C11.2865321,8.54083564 10.9879174,8.24222089 10.9879174,7.87416086 Z M13.3490572,14.0714584 L11.6545922,15.0478592 L9.96012713,14.0714584 L9.96012713,12.1214347 L11.6545922,11.145034 L13.3490572,12.1214347 L13.3490572,14.0714584 L13.3490572,14.0714584 Z M16.6810422,15.9312033 C16.4977066,16.2492627 16.0921461,16.3589862 15.7754756,16.1756507 C15.4588051,15.9923151 15.3490815,15.5839768 15.5324171,15.2659174 C15.7157527,14.947858 16.1213132,14.8381344 16.4379837,15.02147 C16.7560431,15.2048055 16.8643777,15.6117549 16.6810422,15.9312033 Z" id="å½¢çŠ¶" fill="#FFFFFF" fill-rule="nonzero"></path>
                                <text id="Label" font-family="PingFang-SC-Bold, PingFang SC" font-size="10" font-weight="bold" line-spacing="14" letter-spacing="0.2" fill="#FAFAFC">
                                    <tspan x="28" y="16">è®¾ä¸ºä¸­å¿ƒ</tspan>
                                </text>
                            </g>
                        </g>
                    </g>
                </g>
            </g>
        </g>
    </g>
</svg>