<?xml version="1.0" encoding="UTF-8"?>
<svg width="114px" height="40px" viewBox="0 0 114 40" version="1.1" xmlns="http://www.w3.org/2000/svg" xmlns:xlink="http://www.w3.org/1999/xlink">
    <!-- Generator: Sketch 61.1 (89650) - https://sketch.com -->
    <title>æŸ¥çœ‹è®¾å¤‡è¯¦æƒ…</title>
    <desc>Created with Sketch.</desc>
    <defs>
        <path d="M12,0 L87,0 C93.627417,-1.21743675e-15 99,5.372583 99,12 C99,18.627417 93.627417,24 87,24 L12,24 C5.372583,24 8.11624501e-16,18.627417 0,12 C-8.11624501e-16,5.372583 5.372583,1.21743675e-15 12,0 Z" id="path-1"></path>
        <filter x="-14.1%" y="-41.7%" width="128.3%" height="216.7%" filterUnits="objectBoundingBox" id="filter-2">
            <feOffset dx="0" dy="4" in="SourceAlpha" result="shadowOffsetOuter1"></feOffset>
            <feGaussianBlur stdDeviation="4" in="shadowOffsetOuter1" result="shadowBlurOuter1"></feGaussianBlur>
            <feColorMatrix values="0 0 0 0 0.376470588   0 0 0 0 0.380392157   0 0 0 0 0.439215686  0 0 0 0.16 0" type="matrix" in="shadowBlurOuter1" result="shadowMatrixOuter1"></feColorMatrix>
            <feOffset dx="0" dy="0" in="SourceAlpha" result="shadowOffsetOuter2"></feOffset>
            <feGaussianBlur stdDeviation="1" in="shadowOffsetOuter2" result="shadowBlurOuter2"></feGaussianBlur>
            <feColorMatrix values="0 0 0 0 0.156862745   0 0 0 0 0.160784314   0 0 0 0 0.239215686  0 0 0 0.04 0" type="matrix" in="shadowBlurOuter2" result="shadowMatrixOuter2"></feColorMatrix>
            <feMerge>
                <feMergeNode in="shadowMatrixOuter1"></feMergeNode>
                <feMergeNode in="shadowMatrixOuter2"></feMergeNode>
            </feMerge>
        </filter>
    </defs>
    <g id="å‡¯æ™ºæ…§è½¦_1" stroke="none" stroke-width="1" fill="none" fill-rule="evenodd">
        <g id="3-2.1æ™ºèƒ½è®¾å¤‡å›¾è°±ç®¡ç†-æœç´¢ç»“æžœ1" transform="translate(-1213.000000, -359.000000)">
            <g id="ç¼–ç»„" transform="translate(1218.000000, 326.000000)">
                <g id="ç¼–ç»„-13">
                    <g id="æŸ¥çœ‹è®¾å¤‡è¯¦æƒ…" transform="translate(0.000000, 34.925429)">
                        <g id="ç¼–ç»„-22">
                            <g id="ç¼–ç»„-16" fill-rule="nonzero">
                                <rect id="çŸ©å½¢" x="0" y="0" width="104" height="28" rx="14"></rect>
                            </g>
                            <g id="ç¼–ç»„-16å¤‡ä»½" transform="translate(2.392717, 1.849650)">
                                <g id="Chips5å¤‡ä»½">
                                    <g id="Button-/-Base-/-Button-Style-/-âš™ï¸-Rounded-Fill" fill-rule="nonzero">
                                        <g id="â‘-Elevation">
                                            <use fill="black" fill-opacity="1" filter="url(#filter-2)" xlink:href="#path-1"></use>
                                            <use fill="#FFFFFF" xlink:href="#path-1"></use>
                                        </g>
                                        <path d="M12,0 L87,0 C93.627417,-1.21743675e-15 99,5.372583 99,12 C99,18.627417 93.627417,24 87,24 L12,24 C5.372583,24 8.11624501e-16,18.627417 0,12 C-8.11624501e-16,5.372583 5.372583,1.21743675e-15 12,0 Z" id="ðŸŽ¨-Color" fill="#FF5C5C"></path>
                                    </g>
                                    <g id="Avatar-/-Image" opacity="0.7" transform="translate(2.000000, 2.000000)" fill="#F7F7F7">
                                        <circle id="Avatar-Image" cx="10" cy="10" r="10"></circle>
                                    </g>
                                </g>
                                <g id="filesearch" transform="translate(8.000000, 7.000000)" fill="#FF5C5C" fill-rule="nonzero" stroke="#FF5C5C" stroke-width="0.1">
                                    <path d="M6.4077604,2.73954973 L6.4077604,2.18235318 C6.4077604,2.13127683 6.36597065,2.08948709 6.3148943,2.08948709 L1.85732185,2.08948709 C1.8062455,2.08948709 1.76445576,2.13127683 1.76445576,2.18235318 L1.76445576,2.73954973 C1.76445576,2.79062609 1.8062455,2.83241583 1.85732185,2.83241583 L6.3148943,2.83241583 C6.36597065,2.83241583 6.4077604,2.79062609 6.4077604,2.73954973 Z M1.85732185,3.76107675 C1.8062455,3.76107675 1.76445576,3.8028665 1.76445576,3.85394285 L1.76445576,4.4111394 C1.76445576,4.46221575 1.8062455,4.5040055 1.85732185,4.5040055 L3.99324199,4.5040055 C4.04431834,4.5040055 4.08610808,4.46221575 4.08610808,4.4111394 L4.08610808,3.85394285 C4.08610808,3.8028665 4.04431834,3.76107675 3.99324199,3.76107675 L1.85732185,3.76107675 Z" id="å½¢çŠ¶"></path>
                                    <path d="M3.52891152,9.00801099 L0.835794834,9.00801099 L0.835794834,0.835794834 L7.33642132,0.835794834 L7.33642132,4.82903682 C7.33642132,4.88011317 7.37821106,4.92190291 7.42928741,4.92190291 L8.07935006,4.92190291 C8.13042641,4.92190291 8.17221616,4.88011317 8.17221616,4.82903682 L8.17221616,0.371464371 C8.17221616,0.165998141 8.00621802,0 7.80075179,0 L0.371464371,0 C0.165998141,0 0,0.165998141 0,0.371464371 L0,9.47234145 C0,9.67780768 0.165998141,9.84380582 0.371464371,9.84380582 L3.52891152,9.84380582 C3.57998787,9.84380582 3.62177761,9.80201608 3.62177761,9.75093973 L3.62177761,9.10087708 C3.62177761,9.04980073 3.57998787,9.00801099 3.52891152,9.00801099 Z" id="è·¯å¾„"></path>
                                    <path d="M8.70271371,9.60583646 L7.6196629,8.52278566 C7.87852714,8.18034194 8.03291702,7.75315791 8.03291702,7.28998828 C8.03291702,6.16166525 7.118186,5.24693424 5.98986298,5.24693424 C4.86153995,5.24693424 3.94680894,6.16166525 3.94680894,7.28998828 C3.94680894,8.4183113 4.86153995,9.33304232 5.98986298,9.33304232 C6.40543874,9.33304232 6.79083303,9.20883392 7.1135427,8.99640273 L8.21284507,10.0957051 C8.23141829,10.1142783 8.25463481,10.1224041 8.27785134,10.1224041 C8.30106786,10.1224041 8.32544521,10.1131175 8.3428576,10.0957051 L8.70271371,9.73584899 C8.73869932,9.69986338 8.73869932,9.64182207 8.70271371,9.60583646 Z M5.98986298,8.59011357 C5.27131159,8.59011357 4.68973768,8.00853967 4.68973768,7.28998828 C4.68973768,6.57143688 5.27131159,5.98986298 5.98986298,5.98986298 C6.70841437,5.98986298 7.28998828,6.57143688 7.28998828,7.28998828 C7.28998828,8.00853967 6.70841437,8.59011357 5.98986298,8.59011357 Z" id="å½¢çŠ¶"></path>
                                </g>
                            </g>
                        </g>
                        <text id="Label" font-family="PingFang-SC-Bold, PingFang SC" font-size="10" font-weight="bold" line-spacing="14" letter-spacing="0.2" fill="#FAFAFC">
                            <tspan x="30.3927172" y="17.8496502">æŸ¥çœ‹è®¾å¤‡è¯¦æƒ…</tspan>
                        </text>
                    </g>
                </g>
            </g>
        </g>
    </g>
</svg>